{"glyphs":{":":{"x_min":0,"x_max":297,"ha":297,"o":"m 98 415 l 98 523 l 199 523 l 199 415 z m 98 0 l 98 109 l 199 109 l 199 0 z"},"$":{"x_min":0,"x_max":549,"ha":549,"o":"m 299 54 q 360 60 394 92 q 427 125 427 178 q 427 226 397 255 q 367 284 299 300 z m 248 400 l 248 619 q 195 619 163 589 q 132 560 132 510 q 132 463 160 437 q 188 410 248 400 z m 248 -109 l 248 -19 q 140 -11 85 44 q 31 99 31 200 l 31 211 l 117 211 l 117 203 q 117 138 151 100 q 186 62 248 58 l 248 313 q 147 330 96 377 q 45 425 45 503 q 45 587 100 639 q 154 691 248 696 l 248 764 l 299 764 l 299 696 q 396 688 448 640 q 499 592 500 510 l 413 510 q 407 561 379 588 q 350 615 299 618 l 299 392 q 421 365 469 320 q 518 274 518 189 q 518 101 461 47 q 405 -7 299 -18 l 299 -109 z"},"?":{"x_min":0,"x_max":525,"ha":525,"o":"m 202 193 q 202 196 202 203 q 201 210 201 214 q 201 268 219 309 q 237 351 279 392 l 317 430 q 347 459 359 487 q 372 515 372 550 q 372 599 340 629 q 308 659 256 659 q 191 659 158 620 q 125 581 123 501 l 36 501 l 36 514 q 36 621 95 679 q 153 738 260 738 q 354 738 410 686 q 466 635 466 550 q 466 503 448 464 q 430 424 393 389 l 352 350 q 314 314 302 286 q 289 258 289 218 q 289 208 289 203 q 290 197 290 193 z m 199 0 l 199 107 l 297 107 l 297 0 z"},"<":{"x_min":0,"x_max":833,"ha":833,"o":"m 704 491 l 231 298 l 704 106 l 704 31 l 129 267 l 129 330 l 704 566 z"},"'":{"x_min":0,"x_max":155,"ha":155,"o":"m 112 701 l 112 430 l 44 430 l 44 701 z"},"=":{"x_min":0,"x_max":833,"ha":833,"o":"m 709 235 l 709 167 l 124 167 l 124 235 z m 709 429 l 709 361 l 124 361 l 124 429 z"},"a":{"x_min":0,"x_max":543,"ha":543,"o":"m 390 70 q 349 27 303 5 q 257 -16 205 -16 q 125 -16 80 26 q 35 67 35 141 q 35 212 79 253 q 124 293 214 305 q 237 308 276 312 q 343 319 358 325 q 373 331 378 341 q 383 350 383 382 q 383 422 354 442 q 324 462 265 462 q 204 462 173 438 q 142 413 142 365 l 59 365 l 59 369 q 59 448 115 494 q 170 540 268 540 q 373 540 423 501 q 472 461 472 378 l 472 116 q 472 83 479 73 q 487 63 506 63 q 510 63 515 64 q 521 64 529 66 l 529 -2 q 513 -6 501 -8 q 489 -10 478 -10 q 434 -10 412 9 q 390 28 390 67 z m 382 266 q 347 247 261 236 q 231 232 216 230 q 168 222 147 202 q 126 181 126 142 q 126 103 150 82 q 175 61 220 61 q 291 61 336 97 q 382 132 382 188 z"},"L":{"x_min":0,"x_max":535,"ha":535,"o":"m 77 0 l 77 719 l 176 719 l 176 91 l 534 91 l 534 0 z"},"3":{"x_min":0,"x_max":549,"ha":549,"o":"m 23 218 l 114 218 q 116 144 154 104 q 193 64 263 64 q 332 64 371 101 q 410 137 410 201 q 410 260 372 292 q 333 324 263 324 q 249 324 216 322 l 213 322 l 213 401 q 220 400 226 400 q 233 400 243 400 q 318 400 352 426 q 385 451 385 508 q 385 561 353 589 q 321 617 262 617 q 196 617 162 580 q 128 542 128 469 l 39 469 l 39 474 q 39 577 98 638 q 157 699 257 699 q 363 699 422 650 q 481 601 481 512 q 481 461 459 426 q 437 391 394 372 q 450 352 478 308 q 507 265 507 201 q 507 101 439 40 q 371 -20 257 -20 q 150 -20 86 43 q 23 106 23 213 z"},";":{"x_min":0,"x_max":297,"ha":297,"o":"m 98 415 l 98 523 l 199 523 l 199 415 z m 98 0 l 98 108 l 199 108 l 199 -9 q 199 -63 173 -100 q 146 -136 98 -148 l 98 -98 q 122 -93 135 -71 q 148 -49 148 -15 l 148 0 z"},"J":{"x_min":0,"x_max":505,"ha":505,"o":"m 19 233 l 113 233 q 112 228 112 221 q 112 215 112 203 q 112 132 139 100 q 166 68 225 68 q 262 68 287 81 q 311 94 325 122 q 332 135 334 159 q 337 183 337 239 l 337 719 l 435 719 l 435 199 q 435 88 384 34 q 333 -19 227 -19 q 123 -19 70 36 q 18 91 18 202 q 18 214 18 221 q 19 228 19 233 z"},"V":{"x_min":0,"x_max":611,"ha":611,"o":"m 256 0 l 0 719 l 101 719 l 308 117 l 509 719 l 611 719 l 358 0 z"},"\"":{"x_min":0,"x_max":300,"ha":300,"o":"m 256 701 l 256 430 l 188 430 l 188 701 z m 112 701 l 112 430 l 44 430 l 44 701 z"},"7":{"x_min":0,"x_max":549,"ha":549,"o":"m 135 0 q 157 167 227 312 q 297 457 420 588 l 40 588 l 40 679 l 516 679 l 516 596 q 398 468 328 320 q 259 171 237 0 z"},"S":{"x_min":0,"x_max":646,"ha":646,"o":"m 44 237 l 138 237 q 140 159 190 112 q 241 66 325 66 q 409 66 457 101 q 505 136 505 197 q 505 279 324 322 q 313 325 308 326 q 161 361 114 404 q 67 446 67 525 q 67 621 137 679 q 208 738 324 738 q 443 738 512 677 q 580 615 581 508 l 488 508 q 483 580 439 619 q 395 657 318 657 q 246 657 203 626 q 160 594 160 542 q 160 458 338 417 q 364 411 378 408 l 389 405 q 505 377 543 345 q 572 321 587 286 q 602 251 602 208 q 602 104 528 42 q 453 -19 326 -19 q 195 -19 122 47 q 49 113 44 237 z"},"}":{"x_min":0,"x_max":500,"ha":500,"o":"m 281 546 l 281 426 q 281 354 307 324 q 333 295 397 295 q 400 295 408 295 q 415 296 419 296 l 419 223 q 416 223 408 224 q 401 224 398 224 q 333 224 307 195 q 281 165 281 92 l 281 -28 q 281 -100 270 -131 q 259 -162 232 -178 q 211 -191 182 -197 q 152 -202 99 -202 l 78 -202 l 78 -130 l 97 -130 q 156 -130 176 -108 q 197 -86 197 -17 l 197 100 q 197 178 219 211 q 240 245 295 259 q 240 273 219 307 q 197 340 197 418 l 197 536 q 197 604 176 626 q 156 648 97 648 l 78 648 l 78 721 l 96 721 q 148 721 180 715 q 211 709 232 696 q 259 679 270 649 q 281 618 281 546 z"},"Z":{"x_min":0,"x_max":598,"ha":598,"o":"m 28 0 l 28 81 l 468 634 l 57 634 l 57 719 l 581 719 l 581 629 l 150 88 l 581 88 l 581 0 z"},"x":{"x_min":0,"x_max":479,"ha":479,"o":"m 0 0 l 182 269 l 9 523 l 112 523 l 240 335 l 366 523 l 468 523 l 292 270 l 479 0 l 373 0 l 236 202 l 103 0 z"},")":{"x_min":0,"x_max":336,"ha":336,"o":"m 75 -207 l 12 -207 q 81 -89 115 26 q 149 142 149 259 q 149 376 115 492 q 81 607 12 725 l 75 725 q 158 614 197 500 q 237 386 237 259 q 237 132 197 18 q 158 -96 75 -207 z"},"&":{"x_min":0,"x_max":683,"ha":683,"o":"m 304 446 q 355 478 380 511 q 404 544 404 582 q 404 620 380 644 q 356 667 318 667 q 275 667 251 644 q 227 621 227 581 q 227 552 245 519 q 264 487 304 446 z m 270 355 q 204 317 175 280 q 146 243 146 197 q 146 141 184 104 q 221 67 280 67 q 324 67 364 88 q 404 109 440 150 z m 222 414 q 181 458 161 498 q 142 538 142 578 q 142 648 190 694 q 238 739 314 739 q 393 739 439 698 q 486 656 486 586 q 486 529 453 483 q 421 437 351 396 l 486 232 q 499 254 506 284 q 513 313 515 351 l 600 351 q 599 298 585 251 q 572 205 545 162 l 679 0 l 559 0 l 489 87 q 445 35 390 9 q 334 -17 268 -17 q 173 -17 113 42 q 53 100 53 191 q 53 259 93 312 q 132 364 222 414 z"},"_":{"x_min":0,"x_max":500,"ha":500,"o":"m 500 -166 l 500 -236 l 0 -236 l 0 -166 z"},"v":{"x_min":0,"x_max":481,"ha":481,"o":"m 194 0 l 1 523 l 95 523 l 241 104 l 384 523 l 478 523 l 287 0 z"},"O":{"x_min":0,"x_max":773,"ha":773,"o":"m 147 359 q 147 221 211 143 q 274 65 387 65 q 500 65 563 143 q 626 221 626 359 q 626 498 563 575 q 500 653 387 653 q 274 653 211 575 q 147 498 147 359 z m 46 359 q 46 537 136 637 q 227 738 387 738 q 547 738 637 638 q 727 538 727 359 q 727 181 637 80 q 547 -20 387 -20 q 227 -20 136 80 q 46 181 46 359 z"},"(":{"x_min":0,"x_max":336,"ha":336,"o":"m 261 -207 q 178 -95 138 19 q 98 133 98 259 q 98 385 138 499 q 178 613 261 725 l 324 725 q 255 607 221 492 q 187 376 187 259 q 187 142 221 26 q 255 -89 324 -207 z"},"C":{"x_min":0,"x_max":713,"ha":713,"o":"m 580 267 l 675 267 q 668 136 585 58 q 502 -20 370 -20 q 218 -20 132 83 q 46 187 46 370 q 46 539 136 638 q 227 738 380 738 q 502 738 580 675 q 658 612 670 503 l 574 503 q 561 574 509 613 q 458 651 376 651 q 267 651 206 574 q 146 498 146 358 q 146 226 209 146 q 271 67 375 67 q 463 67 520 122 q 576 177 580 267 z"},"W":{"x_min":0,"x_max":904,"ha":904,"o":"m 192 0 l 5 719 l 100 719 l 247 144 l 399 719 l 501 719 l 658 148 l 807 719 l 900 719 l 709 0 l 613 0 l 449 593 l 292 0 z"},"A":{"x_min":0,"x_max":637,"ha":637,"o":"m 205 299 l 429 299 l 318 616 z m -3 0 l 264 719 l 372 719 l 640 0 l 534 0 l 458 215 l 175 215 l 98 0 z"},"f":{"x_min":0,"x_max":264,"ha":264,"o":"m 86 0 l 86 453 l 0 453 l 0 523 l 86 523 l 86 600 q 86 665 115 698 q 145 730 204 730 q 213 730 228 729 q 242 727 269 723 l 269 644 q 255 646 245 648 q 236 649 230 649 q 199 649 187 632 q 175 615 175 567 l 175 523 l 269 523 l 269 453 l 175 453 l 175 0 z"},"Q":{"x_min":0,"x_max":773,"ha":773,"o":"m 492 88 l 413 154 l 461 215 l 557 136 q 591 173 608 230 q 626 287 626 359 q 626 498 563 575 q 500 653 387 653 q 274 653 211 575 q 147 498 147 359 q 147 221 211 143 q 274 65 387 65 q 417 65 443 71 q 469 76 492 88 z m 571 26 q 529 3 483 -9 q 438 -20 387 -20 q 227 -20 136 80 q 46 181 46 359 q 46 537 136 637 q 227 738 387 738 q 546 738 636 637 q 727 536 727 359 q 727 271 704 202 q 681 132 634 76 l 720 4 l 672 -57 z"},"w":{"x_min":0,"x_max":728,"ha":728,"o":"m 163 0 l 7 523 l 98 523 l 209 123 l 312 523 l 414 523 l 516 123 l 631 523 l 721 523 l 562 0 l 473 0 l 363 403 l 252 0 z"},"-":{"x_min":0,"x_max":312,"ha":312,"o":"m 35 225 l 35 304 l 277 304 l 277 225 z"},"E":{"x_min":0,"x_max":639,"ha":639,"o":"m 77 0 l 77 719 l 590 719 l 590 630 l 174 630 l 174 415 l 558 415 l 558 331 l 174 331 l 174 90 l 598 90 l 598 0 z"},"s":{"x_min":0,"x_max":496,"ha":496,"o":"m 31 170 l 115 170 q 120 117 154 89 q 187 62 249 62 q 305 62 338 84 q 371 106 371 145 q 371 174 354 189 q 338 205 291 216 l 192 241 q 109 261 77 294 q 44 327 44 388 q 44 458 97 498 q 149 539 241 539 q 334 539 389 496 q 444 452 444 379 l 444 377 l 359 377 q 356 418 325 441 q 294 464 241 464 q 188 464 160 445 q 132 427 132 391 q 132 366 150 351 q 167 337 214 326 l 299 306 q 390 285 424 251 q 458 218 458 156 q 458 74 401 29 q 344 -16 241 -16 q 140 -16 86 32 q 32 80 31 170 z"},">":{"x_min":0,"x_max":833,"ha":833,"o":"m 704 330 l 704 267 l 129 31 l 129 106 l 603 298 l 129 491 l 129 566 z"},"l":{"x_min":0,"x_max":226,"ha":226,"o":"m 68 0 l 68 719 l 157 719 l 157 0 z"},"8":{"x_min":0,"x_max":549,"ha":549,"o":"m 132 201 q 132 137 170 101 q 208 64 274 64 q 340 64 379 101 q 417 138 417 201 q 417 260 379 295 q 340 329 274 329 q 208 329 170 295 q 132 261 132 201 z m 153 512 q 153 462 186 432 q 219 402 274 402 q 329 402 362 432 q 395 462 395 512 q 395 562 363 591 q 331 619 274 619 q 217 619 185 591 q 153 562 153 512 z m 151 374 q 104 395 82 431 q 59 467 59 520 q 59 600 118 650 q 177 699 274 699 q 371 699 431 649 q 490 600 490 520 q 490 467 467 431 q 444 395 398 374 q 456 352 485 307 q 514 263 514 199 q 514 99 449 40 q 384 -20 274 -20 q 164 -20 100 40 q 35 99 35 199 q 35 263 64 307 q 94 352 151 374 z"},"\\":{"x_min":0,"x_max":301,"ha":301,"o":"m 240 -93 l -1 738 l 59 738 l 302 -93 z"},"e":{"x_min":0,"x_max":547,"ha":547,"o":"m 134 309 l 421 309 q 420 382 384 422 q 347 462 280 462 q 215 462 177 423 q 140 384 134 309 z m 419 169 l 506 169 q 492 83 431 33 q 370 -17 277 -17 q 168 -17 105 56 q 42 129 42 256 q 42 390 104 465 q 167 540 277 540 q 390 540 451 471 q 513 401 513 275 q 513 259 513 251 q 513 243 512 236 l 134 236 q 136 153 175 108 q 215 63 285 63 q 339 63 374 91 q 409 118 419 169 z"},"b":{"x_min":0,"x_max":594,"ha":594,"o":"m 152 265 q 152 167 192 115 q 232 62 306 62 q 378 62 420 113 q 462 165 462 254 q 462 353 422 407 q 381 461 307 461 q 229 461 191 412 q 152 363 152 265 z m 69 0 l 69 719 l 155 719 l 155 450 q 185 495 228 517 q 271 540 324 540 q 428 540 491 464 q 554 388 554 260 q 554 134 492 59 q 430 -16 325 -16 q 270 -16 229 4 q 188 24 155 66 l 155 0 z"},"%":{"x_min":0,"x_max":845,"ha":845,"o":"m 536 174 q 536 131 565 102 q 594 73 636 73 q 677 73 707 103 q 736 132 736 174 q 736 216 707 245 q 678 274 636 274 q 594 274 565 245 q 536 216 536 174 z m 463 174 q 463 247 513 297 q 563 347 636 347 q 708 347 759 296 q 810 246 810 174 q 810 102 759 51 q 708 0 636 0 q 563 0 513 51 q 463 101 463 174 z m 108 506 q 108 463 137 435 q 166 406 208 406 q 250 406 279 435 q 308 464 308 506 q 308 548 279 577 q 250 606 208 606 q 166 606 137 577 q 108 548 108 506 z m 35 506 q 35 579 85 629 q 135 679 208 679 q 280 679 330 628 q 381 578 381 506 q 381 434 330 383 q 280 332 208 332 q 135 332 85 383 q 35 433 35 506 z m 178 -20 l 606 699 l 667 699 l 239 -20 z"},"m":{"x_min":0,"x_max":858,"ha":858,"o":"m 704 0 l 704 322 q 704 401 683 430 q 661 459 608 459 q 544 459 509 420 q 474 380 474 309 l 474 0 l 385 0 l 385 322 q 385 401 363 430 q 342 459 289 459 q 226 459 190 419 q 155 379 155 309 l 155 0 l 67 0 l 67 523 l 151 523 l 151 449 q 180 493 220 515 q 260 536 314 536 q 363 536 397 516 q 432 497 457 454 q 491 497 532 516 q 572 536 625 536 q 676 536 713 518 q 751 500 771 465 q 782 445 787 417 q 792 389 792 329 l 792 314 l 792 0 z"},"#":{"x_min":0,"x_max":769,"ha":769,"o":"m 473 419 l 346 419 l 301 290 l 428 290 z m 451 712 l 372 490 l 497 490 l 577 712 l 657 712 l 579 490 l 726 490 l 701 419 l 553 419 l 508 291 l 665 291 l 640 219 l 483 219 l 404 -2 l 323 -2 l 402 219 l 276 219 l 197 -2 l 116 -2 l 194 219 l 43 219 l 69 291 l 220 291 l 265 419 l 104 419 l 129 490 l 291 490 l 370 712 z"},",":{"x_min":0,"x_max":274,"ha":274,"o":"m 87 0 l 87 108 l 187 108 l 187 -9 q 187 -64 161 -100 q 135 -136 87 -148 l 87 -98 q 110 -93 123 -72 q 136 -50 136 -15 l 136 0 z"},"n":{"x_min":0,"x_max":569,"ha":569,"o":"m 415 0 l 415 322 q 415 399 391 428 q 368 458 310 458 q 236 458 196 416 q 155 375 155 298 l 155 0 l 67 0 l 67 523 l 151 523 l 151 447 q 181 492 223 514 q 264 536 319 536 q 378 536 418 518 q 459 500 481 465 q 493 446 499 420 q 504 395 504 339 l 504 314 l 504 0 z"},"h":{"x_min":0,"x_max":569,"ha":569,"o":"m 415 0 l 415 322 q 415 399 391 429 q 368 458 310 458 q 239 458 197 418 q 155 377 155 309 l 155 0 l 67 0 l 67 719 l 155 719 l 155 449 q 179 492 221 514 q 263 536 319 536 q 378 536 418 518 q 459 500 481 465 q 493 446 499 420 q 504 395 504 339 l 504 314 l 504 0 z"},"z":{"x_min":0,"x_max":481,"ha":481,"o":"m 447 523 l 447 452 l 141 79 l 461 79 l 461 0 l 25 0 l 25 72 l 334 446 l 41 446 l 41 523 z"},"B":{"x_min":0,"x_max":662,"ha":662,"o":"m 77 0 l 77 719 l 367 719 q 479 719 535 675 q 591 631 591 544 q 591 488 565 448 q 539 409 488 388 q 553 376 589 330 q 625 285 625 215 q 625 116 560 58 q 494 0 382 0 z m 175 417 l 346 417 q 422 417 458 444 q 493 472 493 530 q 493 584 459 611 q 425 637 354 637 l 175 637 z m 175 87 l 373 87 q 448 87 486 120 q 525 153 525 216 q 525 278 486 308 q 446 337 362 337 l 175 337 z"},"K":{"x_min":0,"x_max":638,"ha":638,"o":"m 77 0 l 77 719 l 174 719 l 174 372 l 520 719 l 650 719 l 356 431 l 658 0 l 537 0 l 285 361 l 174 252 l 174 0 z"},"R":{"x_min":0,"x_max":664,"ha":664,"o":"m 173 635 l 173 391 l 340 391 q 430 391 468 420 q 505 450 505 518 q 505 582 470 608 q 435 635 340 635 z m 77 719 l 356 719 q 424 719 456 713 q 488 708 513 694 q 559 669 582 625 q 606 580 606 520 q 606 462 581 421 q 556 379 507 356 q 549 344 567 316 q 584 289 589 222 l 597 104 q 600 65 607 47 q 615 28 630 20 l 630 0 l 517 0 q 503 22 498 96 l 498 99 l 492 193 q 487 265 461 287 q 436 308 332 308 l 174 308 l 174 0 l 77 0 z"},"T":{"x_min":0,"x_max":571,"ha":571,"o":"m 236 0 l 236 632 l 9 632 l 9 719 l 561 719 l 561 632 l 334 632 l 334 0 z"},"P":{"x_min":0,"x_max":630,"ha":630,"o":"m 175 390 l 339 390 q 424 390 458 417 q 492 445 492 511 q 492 575 458 603 q 425 631 346 631 l 175 631 z m 77 0 l 77 719 l 342 719 q 406 719 440 713 q 474 707 500 692 q 544 668 567 621 q 591 574 591 511 q 591 451 567 405 q 544 359 499 332 q 473 316 438 310 q 403 303 323 303 l 175 303 l 175 0 z"},"|":{"x_min":0,"x_max":500,"ha":500,"o":"m 287 764 l 287 -236 l 214 -236 l 214 764 z"},"t":{"x_min":0,"x_max":281,"ha":281,"o":"m 170 132 q 170 97 180 85 q 190 73 217 73 q 225 73 236 74 q 247 74 264 76 l 264 1 q 242 -3 225 -5 q 208 -7 194 -7 q 132 -7 107 17 q 82 41 82 102 l 82 453 l 4 453 l 4 523 l 82 523 l 82 669 l 170 669 l 170 523 l 264 523 l 264 453 l 170 453 z"},"M":{"x_min":0,"x_max":830,"ha":830,"o":"m 167 613 l 167 0 l 77 0 l 77 719 l 217 719 l 395 169 q 403 146 406 133 q 410 120 412 110 q 416 128 420 142 q 424 156 428 169 l 613 719 l 753 719 l 753 0 l 658 0 l 658 613 q 655 597 650 581 q 646 565 641 550 l 456 0 l 364 0 l 183 550 q 178 563 174 579 q 170 595 167 613 z"},"g":{"x_min":0,"x_max":595,"ha":595,"o":"m 288 461 q 214 461 174 409 q 134 357 134 261 q 134 167 175 115 q 216 62 289 62 q 369 62 407 110 q 446 158 446 258 q 446 358 406 410 q 366 461 288 461 z m 443 64 q 412 23 371 3 q 330 -17 277 -17 q 171 -17 106 60 q 42 137 42 263 q 42 388 107 464 q 171 540 278 540 q 330 540 369 520 q 408 500 442 457 l 442 523 l 528 523 l 528 11 q 528 -110 470 -164 q 413 -218 284 -218 q 180 -218 122 -177 q 63 -137 63 -65 l 63 -61 l 149 -61 l 149 -63 q 149 -104 183 -124 q 218 -144 287 -144 q 370 -144 406 -112 q 443 -81 443 -8 z"},"j":{"x_min":0,"x_max":230,"ha":230,"o":"m 73 617 l 73 719 l 161 719 l 161 617 z m -12 -217 l -12 -136 q -6 -137 0 -137 q 6 -137 17 -137 q 51 -137 62 -125 q 73 -113 73 -67 l 73 523 l 161 523 l 161 -79 q 161 -156 131 -188 q 101 -219 28 -219 q 17 -219 -6 -217 q -10 -217 -12 -217 z"},"i":{"x_min":0,"x_max":222,"ha":222,"o":"m 67 619 l 67 719 l 155 719 l 155 619 z m 67 0 l 67 523 l 155 523 l 155 0 z"},"y":{"x_min":0,"x_max":507,"ha":507,"o":"m 398 523 l 496 523 l 276 -81 q 245 -167 213 -193 q 181 -219 121 -219 q 108 -219 95 -217 q 82 -215 69 -211 l 69 -127 q 82 -131 95 -133 q 107 -135 120 -135 q 146 -135 161 -125 q 177 -114 185 -92 l 208 -30 l 10 523 l 108 523 l 253 100 z"},"@":{"x_min":0,"x_max":1000,"ha":1000,"o":"m 627 417 l 655 473 l 719 473 l 648 192 q 646 184 645 177 q 644 169 644 163 q 644 141 656 129 q 669 117 693 117 q 716 117 743 130 q 770 143 795 167 q 834 204 856 258 q 878 312 878 372 q 878 499 785 577 q 692 656 541 656 q 476 656 421 642 q 366 628 318 600 q 225 544 173 454 q 122 363 122 254 q 122 167 152 104 q 182 40 246 -9 q 295 -46 362 -67 q 428 -87 502 -87 q 584 -87 662 -63 q 740 -39 805 6 l 832 -34 q 760 -88 678 -116 q 597 -143 508 -143 q 415 -143 338 -120 q 261 -97 201 -52 q 126 6 89 82 q 52 158 52 255 q 52 335 77 408 q 103 480 151 539 q 222 626 323 671 q 423 716 545 716 q 625 716 696 694 q 768 672 820 632 q 883 583 916 519 q 949 455 949 381 q 949 295 918 227 q 887 159 828 112 q 795 85 755 71 q 715 57 674 57 q 625 57 601 76 q 576 96 576 134 l 576 143 q 549 100 513 79 q 477 58 429 58 q 354 58 315 100 q 276 141 276 220 q 276 335 343 413 q 411 490 509 490 q 550 490 580 472 q 609 454 627 417 z m 581 232 l 610 347 q 602 390 576 414 q 551 437 513 437 q 446 437 400 374 q 354 310 354 218 q 354 167 378 139 q 401 111 445 111 q 492 111 530 145 q 568 178 581 232 z"},".":{"x_min":0,"x_max":274,"ha":274,"o":"m 87 0 l 87 109 l 187 109 l 187 0 z"},"p":{"x_min":0,"x_max":594,"ha":594,"o":"m 152 258 q 152 160 191 111 q 229 62 307 62 q 381 62 422 116 q 462 170 462 269 q 462 358 420 410 q 378 461 306 461 q 232 461 192 408 q 152 355 152 258 z m 69 -209 l 69 523 l 155 523 l 155 449 q 188 496 228 518 q 269 540 325 540 q 430 540 492 465 q 554 390 554 263 q 554 135 491 60 q 428 -16 324 -16 q 269 -16 227 4 q 186 23 155 64 l 155 -209 z"},"X":{"x_min":0,"x_max":605,"ha":605,"o":"m 0 0 l 247 368 l 13 719 l 133 719 l 304 453 l 478 719 l 592 719 l 358 370 l 605 0 l 485 0 l 300 291 l 119 0 z"},"*":{"x_min":0,"x_max":500,"ha":500,"o":"m 249 464 l 164 341 l 96 386 l 192 506 l 53 544 l 78 621 l 212 575 l 212 719 l 287 719 l 287 575 l 420 621 l 447 544 l 306 506 l 403 387 l 336 338 z"},"Y":{"x_min":0,"x_max":603,"ha":603,"o":"m 356 0 l 258 0 l 258 288 l -9 719 l 114 719 l 306 379 l 497 719 l 612 719 l 356 295 z"},"c":{"x_min":0,"x_max":525,"ha":525,"o":"m 414 349 q 410 403 375 432 q 340 461 280 461 q 208 461 170 410 q 131 358 131 263 q 131 167 168 116 q 206 64 274 64 q 335 64 372 96 q 409 127 418 188 l 502 188 q 495 92 434 38 q 373 -16 270 -16 q 163 -16 101 58 q 40 131 40 260 q 40 391 104 466 q 168 540 280 540 q 378 540 438 489 q 497 437 501 349 z"},"!":{"x_min":0,"x_max":321,"ha":321,"o":"m 135 174 l 111 485 l 111 719 l 209 719 l 209 485 l 186 174 z m 111 0 l 111 107 l 209 107 l 209 0 z"},"/":{"x_min":0,"x_max":301,"ha":301,"o":"m -1 -93 l 240 738 l 302 738 l 59 -93 z"},"[":{"x_min":0,"x_max":354,"ha":354,"o":"m 121 -200 l 121 719 l 316 719 l 316 651 l 209 651 l 209 -132 l 316 -132 l 316 -200 z"},"6":{"x_min":0,"x_max":549,"ha":549,"o":"m 423 212 q 423 280 385 320 q 348 361 287 361 q 219 361 180 321 q 141 281 141 211 q 141 141 180 100 q 219 59 284 59 q 347 59 385 101 q 423 143 423 212 z m 514 507 l 422 507 q 417 562 385 590 q 354 618 297 618 q 221 618 180 556 q 140 493 133 366 q 163 404 204 423 q 246 443 298 443 q 397 443 459 380 q 520 316 520 213 q 520 109 455 44 q 390 -20 284 -20 q 163 -20 98 65 q 33 149 33 308 q 33 495 102 597 q 171 699 296 699 q 395 699 451 649 q 508 599 514 507 z"},"r":{"x_min":0,"x_max":332,"ha":332,"o":"m 67 0 l 67 523 l 152 523 l 152 429 q 173 482 209 508 q 245 534 297 534 q 307 534 311 534 q 315 534 320 533 l 320 440 q 316 440 312 441 q 308 441 299 441 q 229 441 192 403 q 155 364 155 291 l 155 0 z"},"2":{"x_min":0,"x_max":549,"ha":549,"o":"m 31 0 l 31 6 q 31 107 80 176 q 129 245 251 312 l 310 344 q 363 373 387 409 q 412 445 412 493 q 412 549 375 583 q 337 616 274 616 q 210 616 174 573 q 137 530 137 455 l 137 447 l 46 447 l 46 459 q 46 570 108 635 q 171 699 278 699 q 381 699 444 642 q 507 585 507 492 q 507 420 470 366 q 434 313 357 273 l 298 243 q 218 201 180 165 q 143 129 131 86 l 507 86 l 507 0 z"},"{":{"x_min":0,"x_max":500,"ha":500,"o":"m 423 648 l 403 648 q 344 648 324 626 q 304 604 304 536 l 304 418 q 304 340 282 307 q 261 273 206 259 q 261 245 283 212 q 304 179 304 100 l 304 -18 q 304 -87 324 -108 q 345 -130 404 -130 l 423 -130 l 423 -202 l 402 -202 q 349 -202 319 -197 q 290 -191 269 -178 q 242 -162 231 -131 q 220 -100 220 -28 l 220 92 q 220 165 194 194 q 167 224 103 224 q 100 224 93 224 q 85 223 82 223 l 82 296 q 86 296 93 295 q 101 295 104 295 q 167 295 194 324 q 220 354 220 426 l 220 546 q 220 618 231 649 q 242 679 269 696 q 291 709 322 715 q 353 721 405 721 l 423 721 z"},"9":{"x_min":0,"x_max":549,"ha":549,"o":"m 126 467 q 126 399 163 359 q 200 319 261 319 q 329 319 368 359 q 407 398 407 468 q 407 538 369 579 q 330 620 265 620 q 202 620 164 578 q 126 536 126 467 z m 35 172 l 127 172 q 128 120 162 91 q 195 61 252 61 q 328 61 369 123 q 409 186 416 313 q 387 275 344 256 q 302 236 250 236 q 151 236 90 299 q 29 362 29 466 q 29 570 94 635 q 158 699 264 699 q 386 699 451 615 q 516 530 516 371 q 516 183 447 81 q 378 -20 251 -20 q 152 -20 94 32 q 36 84 35 172 z"}," ":{"x_min":0,"x_max":274,"ha":274,"o":""},"I":{"x_min":0,"x_max":257,"ha":257,"o":"m 79 0 l 79 719 l 177 719 l 177 0 z"},"H":{"x_min":0,"x_max":723,"ha":723,"o":"m 77 0 l 77 719 l 175 719 l 175 424 l 548 424 l 548 719 l 646 719 l 646 0 l 548 0 l 548 337 l 175 337 l 175 0 z"},"4":{"x_min":0,"x_max":549,"ha":549,"o":"m 109 252 l 329 252 l 329 563 z m 329 0 l 329 172 l 25 172 l 25 260 l 328 679 l 419 679 l 419 252 l 518 252 l 518 172 l 419 172 l 419 0 z"},"~":{"x_min":0,"x_max":833,"ha":833,"o":"m 747 300 q 696 265 650 248 q 604 231 557 231 q 512 231 432 259 q 421 263 416 265 l 408 268 q 322 297 275 297 q 234 297 189 279 q 145 261 87 220 l 87 296 q 139 331 186 349 q 232 366 276 366 q 306 366 338 360 q 370 353 418 336 q 426 333 441 328 q 519 300 558 300 q 601 300 646 318 q 690 336 747 376 z"},"D":{"x_min":0,"x_max":707,"ha":707,"o":"m 343 636 l 175 636 l 175 88 l 343 88 q 451 88 506 158 q 561 228 561 365 q 561 497 505 566 q 449 636 343 636 z m 77 0 l 77 719 l 351 719 q 501 719 581 629 q 661 540 661 370 q 661 195 578 97 q 496 0 347 0 z"},"^":{"x_min":0,"x_max":1000,"ha":1000,"o":"m 545 712 l 794 440 l 706 440 l 500 645 l 293 440 l 205 440 l 454 712 z"},"0":{"x_min":0,"x_max":549,"ha":549,"o":"m 130 339 q 130 194 165 128 q 199 62 274 62 q 349 62 384 128 q 418 193 418 339 q 418 485 384 551 q 349 617 274 617 q 199 617 165 551 q 130 484 130 339 z m 34 339 q 34 516 95 607 q 156 699 274 699 q 392 699 454 608 q 515 516 515 339 q 515 163 454 71 q 393 -20 274 -20 q 156 -20 95 71 q 34 163 34 339 z"},"F":{"x_min":0,"x_max":583,"ha":583,"o":"m 77 0 l 77 719 l 560 719 l 560 629 l 175 629 l 175 413 l 511 413 l 511 325 l 175 325 l 175 0 z"},"`":{"x_min":0,"x_max":500,"ha":500,"o":"m 320 594 l 261 594 l 122 764 l 220 764 z"},"k":{"x_min":0,"x_max":517,"ha":517,"o":"m 67 0 l 67 719 l 155 719 l 155 288 l 391 523 l 502 523 l 306 332 l 499 0 l 400 0 l 247 271 l 155 182 l 155 0 z"},"u":{"x_min":0,"x_max":569,"ha":569,"o":"m 154 523 l 154 202 q 154 125 178 95 q 202 65 260 65 q 336 65 375 110 q 414 154 414 241 l 414 523 l 502 523 l 502 0 l 418 0 l 418 78 q 391 33 347 10 q 304 -13 245 -13 q 190 -13 150 5 q 109 24 88 58 q 76 77 70 103 q 65 128 65 184 l 65 209 l 65 523 z"},"]":{"x_min":0,"x_max":354,"ha":354,"o":"m 233 719 l 233 -200 l 38 -200 l 38 -132 l 145 -132 l 145 651 l 38 651 l 38 719 z"},"U":{"x_min":0,"x_max":709,"ha":709,"o":"m 73 273 l 73 719 l 171 719 l 171 272 q 171 171 216 123 q 260 74 354 74 q 447 74 492 123 q 538 172 538 272 l 538 719 l 636 719 l 636 273 q 636 128 562 54 q 487 -20 343 -20 q 208 -20 141 53 q 73 126 73 273 z"},"o":{"x_min":0,"x_max":581,"ha":581,"o":"m 130 262 q 130 165 172 114 q 213 62 291 62 q 368 62 409 114 q 450 165 450 262 q 450 359 409 410 q 368 462 291 462 q 213 462 171 411 q 130 359 130 262 z m 40 262 q 40 394 106 467 q 171 540 290 540 q 409 540 475 467 q 541 394 541 262 q 541 130 475 57 q 410 -16 291 -16 q 172 -16 106 57 q 40 130 40 262 z"},"N":{"x_min":0,"x_max":721,"ha":721,"o":"m 76 0 l 76 719 l 183 719 l 519 197 q 530 180 539 165 q 547 149 552 136 l 552 719 l 645 719 l 645 0 l 539 0 l 196 530 q 188 542 181 555 q 175 568 169 583 l 169 0 z"},"+":{"x_min":0,"x_max":833,"ha":833,"o":"m 451 596 l 451 332 l 709 332 l 709 264 l 451 264 l 451 0 l 382 0 l 382 264 l 124 264 l 124 332 l 382 332 l 382 596 z"},"G":{"x_min":0,"x_max":764,"ha":764,"o":"m 615 96 q 571 38 511 9 q 450 -20 373 -20 q 227 -20 136 84 q 46 188 46 358 q 46 534 140 636 q 233 738 394 738 q 517 738 595 676 q 672 613 688 502 l 593 502 q 580 575 528 614 q 476 654 394 654 q 276 654 212 577 q 147 501 147 362 q 147 224 211 146 q 275 69 387 69 q 489 69 549 131 q 610 193 610 298 l 610 307 l 385 307 l 385 388 l 700 388 l 700 0 l 636 0 z"},"q":{"x_min":0,"x_max":594,"ha":594,"o":"m 131 269 q 131 169 173 115 q 214 61 291 61 q 363 61 403 113 q 442 166 442 262 q 442 356 401 409 q 361 461 288 461 q 215 461 173 410 q 131 358 131 269 z m 439 69 q 414 27 370 6 q 327 -16 269 -16 q 165 -16 102 60 q 40 135 40 263 q 40 390 102 465 q 165 540 269 540 q 325 540 366 519 q 408 497 439 452 l 439 523 l 524 523 l 524 -209 l 439 -209 z"},"d":{"x_min":0,"x_max":594,"ha":594,"o":"m 442 265 q 442 362 403 412 q 363 461 286 461 q 212 461 171 407 q 131 353 131 254 q 131 165 173 113 q 214 62 287 62 q 361 62 401 115 q 442 167 442 265 z m 524 719 l 524 0 l 439 0 l 439 66 q 405 25 363 4 q 320 -16 269 -16 q 165 -16 102 59 q 40 134 40 260 q 40 388 103 464 q 165 540 269 540 q 324 540 366 520 q 408 500 439 459 l 439 719 z"},"1":{"x_min":0,"x_max":549,"ha":549,"o":"m 256 0 l 256 494 l 94 494 l 94 565 q 182 566 227 598 q 271 630 279 699 l 347 699 l 347 0 z"},"5":{"x_min":0,"x_max":549,"ha":549,"o":"m 27 181 l 119 181 q 127 127 164 96 q 201 66 258 66 q 328 66 370 108 q 413 151 413 220 q 413 292 372 333 q 330 375 259 375 q 219 375 185 359 q 152 343 127 311 l 47 311 l 102 679 l 472 679 l 472 597 l 168 597 l 140 410 q 166 432 200 444 q 234 455 274 455 q 381 455 445 392 q 510 329 510 225 q 510 115 441 48 q 373 -20 262 -20 q 164 -20 99 35 q 35 90 27 181 z"}}}
